<mxfile host="app.diagrams.net" modified="2024-04-27T06:59:07.455Z" agent="Mozilla/5.0 (Windows NT 10.0; Win64; x64) AppleWebKit/537.36 (KHTML, like Gecko) Chrome/124.0.0.0 Safari/537.36" etag="M6lB6d7k2sKh5LyrxV9h" version="24.3.1" type="google">
  <diagram name="Page-1" id="7i0HS5fh59K__IMDZCdu">
    <mxGraphModel grid="1" page="1" gridSize="10" guides="1" tooltips="1" connect="1" arrows="1" fold="1" pageScale="1" pageWidth="827" pageHeight="1169" math="0" shadow="0">
      <root>
        <mxCell id="0" />
        <mxCell id="1" parent="0" />
        <UserObject label="pre-purchasing-checks" link="https://github.com/judewood/system-diagrams-demo" id="en84tyfOizJZ0K7rBSEd-10">
          <mxCell style="rounded=0;whiteSpace=wrap;html=1;fillColor=#d5e8d4;strokeColor=#82b366;labelPosition=center;verticalLabelPosition=bottom;align=center;verticalAlign=top;fontSize=18;labelBackgroundColor=none;strokeWidth=2;" vertex="1" parent="1">
            <mxGeometry x="-670" y="560" width="320" height="196.5" as="geometry" />
          </mxCell>
        </UserObject>
        <mxCell id="en84tyfOizJZ0K7rBSEd-1" value="&lt;b&gt;Key&lt;/b&gt;" style="rounded=1;whiteSpace=wrap;html=1;labelPosition=center;verticalLabelPosition=middle;align=center;verticalAlign=top;fontSize=18;labelBackgroundColor=none;strokeWidth=2;" vertex="1" parent="1">
          <mxGeometry x="-820" y="130" width="790" height="170" as="geometry" />
        </mxCell>
        <mxCell id="en84tyfOizJZ0K7rBSEd-2" value="module" style="rounded=1;whiteSpace=wrap;html=1;fillColor=#e1d5e7;strokeColor=#9673a6;fontSize=18;strokeWidth=2;labelBackgroundColor=none;" vertex="1" parent="1">
          <mxGeometry x="-800" y="170" width="120" height="60" as="geometry" />
        </mxCell>
        <mxCell id="en84tyfOizJZ0K7rBSEd-6" style="edgeStyle=orthogonalEdgeStyle;rounded=0;orthogonalLoop=1;jettySize=auto;html=1;flowAnimation=0;entryX=0;entryY=0.5;entryDx=0;entryDy=0;entryPerimeter=0;fontSize=18;labelBackgroundColor=none;strokeWidth=2;" edge="1" parent="1" source="en84tyfOizJZ0K7rBSEd-7" target="en84tyfOizJZ0K7rBSEd-15">
          <mxGeometry relative="1" as="geometry">
            <mxPoint x="-598" y="586.5" as="targetPoint" />
          </mxGeometry>
        </mxCell>
        <mxCell id="en84tyfOizJZ0K7rBSEd-7" value="Purchase Request Handling&amp;nbsp;" style="rounded=1;whiteSpace=wrap;html=1;fillColor=#e1d5e7;strokeColor=#9673a6;fontSize=18;strokeWidth=2;labelBackgroundColor=none;opacity=50;" vertex="1" parent="1">
          <mxGeometry x="-820" y="596.5" width="120" height="60" as="geometry" />
        </mxCell>
        <mxCell id="en84tyfOizJZ0K7rBSEd-8" value="Code repository" style="rounded=0;whiteSpace=wrap;html=1;fillColor=#d5e8d4;strokeColor=#82b366;fontSize=18;labelBackgroundColor=none;strokeWidth=2;" vertex="1" parent="1">
          <mxGeometry x="-520" y="170" width="120" height="60" as="geometry" />
        </mxCell>
        <mxCell id="en84tyfOizJZ0K7rBSEd-18" value="buffered&lt;div style=&quot;font-size: 18px;&quot;&gt;requests&lt;/div&gt;" style="edgeStyle=orthogonalEdgeStyle;rounded=0;orthogonalLoop=1;jettySize=auto;html=1;entryX=0;entryY=0.5;entryDx=0;entryDy=0;entryPerimeter=0;fontSize=18;labelBackgroundColor=none;strokeWidth=2;align=left;" edge="1" parent="1" source="en84tyfOizJZ0K7rBSEd-15" target="en84tyfOizJZ0K7rBSEd-11">
          <mxGeometry x="-0.7936" y="26" relative="1" as="geometry">
            <mxPoint x="-328" y="626.5" as="sourcePoint" />
            <mxPoint x="-284" y="626.9705882352941" as="targetPoint" />
            <mxPoint as="offset" />
          </mxGeometry>
        </mxCell>
        <mxCell id="A8VTY1zA6KB5rll78TfK-1" style="edgeStyle=orthogonalEdgeStyle;rounded=0;orthogonalLoop=1;jettySize=auto;html=1;entryX=0;entryY=0.5;entryDx=0;entryDy=0;strokeWidth=2;fontSize=18;labelBackgroundColor=none;" edge="1" parent="1" source="5vuYcq1ne47_bo_od98X-3" target="B2KNwrcKhyxJ70hqTyCT-1">
          <mxGeometry relative="1" as="geometry" />
        </mxCell>
        <mxCell id="5vuYcq1ne47_bo_od98X-10" value="Update&amp;nbsp;&lt;div&gt;Item&amp;nbsp;&lt;/div&gt;&lt;div&gt;&lt;span style=&quot;background-color: initial;&quot;&gt;Status&lt;/span&gt;&lt;/div&gt;" style="edgeStyle=orthogonalEdgeStyle;rounded=0;orthogonalLoop=1;jettySize=auto;html=1;fontSize=18;labelBackgroundColor=none;align=left;strokeWidth=2;exitX=0.75;exitY=0;exitDx=0;exitDy=0;exitPerimeter=0;" edge="1" parent="1" source="en84tyfOizJZ0K7rBSEd-11">
          <mxGeometry x="0.4196" y="-10" relative="1" as="geometry">
            <mxPoint x="-413" y="595.5" as="sourcePoint" />
            <mxPoint x="-405" y="460" as="targetPoint" />
            <mxPoint as="offset" />
          </mxGeometry>
        </mxCell>
        <UserObject label="Item&amp;nbsp;&lt;div style=&quot;font-size: 18px;&quot;&gt;Availability&amp;nbsp;&lt;/div&gt;&lt;div style=&quot;font-size: 18px;&quot;&gt;Check&lt;/div&gt;" link="https://us-east-1.console.aws.amazon.com/lambda/home?region=us-east-1#/functions/ItemAvailabilityCheck?tab=code" id="en84tyfOizJZ0K7rBSEd-11">
          <mxCell style="sketch=0;points=[[0,0,0],[0.25,0,0],[0.5,0,0],[0.75,0,0],[1,0,0],[0,1,0],[0.25,1,0],[0.5,1,0],[0.75,1,0],[1,1,0],[0,0.25,0],[0,0.5,0],[0,0.75,0],[1,0.25,0],[1,0.5,0],[1,0.75,0]];outlineConnect=0;fontColor=#232F3E;gradientColor=#F78E04;gradientDirection=north;fillColor=#D05C17;strokeColor=#ffffff;dashed=0;verticalLabelPosition=bottom;verticalAlign=top;align=center;html=1;fontSize=18;fontStyle=0;aspect=fixed;shape=mxgraph.aws4.resourceIcon;resIcon=mxgraph.aws4.lambda;labelBackgroundColor=none;strokeWidth=2;" vertex="1" parent="1">
            <mxGeometry x="-463.94" y="587.5" width="77.88" height="77.88" as="geometry" />
          </mxCell>
        </UserObject>
        <UserObject label="Parent" link="https://judewoodprofessional.atlassian.net/wiki/x/JoAY" id="en84tyfOizJZ0K7rBSEd-14">
          <mxCell style="image;aspect=fixed;html=1;points=[];align=center;fontSize=20;image=img/lib/azure2/general/Launch_Portal.svg;labelBackgroundColor=none;imageBackground=default;strokeWidth=2;" vertex="1" parent="1">
            <mxGeometry x="-820" y="315" width="68" height="67" as="geometry" />
          </mxCell>
        </UserObject>
        <UserObject label="Pre-purchase&amp;nbsp;&lt;div style=&quot;font-size: 18px;&quot;&gt;check&amp;nbsp;&lt;/div&gt;&lt;div style=&quot;font-size: 18px;&quot;&gt;queue&lt;/div&gt;" link="https://us-east-1.console.aws.amazon.com/sqs/v3/home?region=us-east-1#/queues/https%3A%2F%2Fsqs.us-east-1.amazonaws.com%2F187625368102%2FItemAvailabilityCheckQueue" id="en84tyfOizJZ0K7rBSEd-15">
          <mxCell style="sketch=0;points=[[0,0,0],[0.25,0,0],[0.5,0,0],[0.75,0,0],[1,0,0],[0,1,0],[0.25,1,0],[0.5,1,0],[0.75,1,0],[1,1,0],[0,0.25,0],[0,0.5,0],[0,0.75,0],[1,0.25,0],[1,0.5,0],[1,0.75,0]];outlineConnect=0;fontColor=#232F3E;fillColor=#E7157B;strokeColor=#ffffff;dashed=0;verticalLabelPosition=bottom;verticalAlign=top;align=center;html=1;fontSize=18;fontStyle=0;aspect=fixed;shape=mxgraph.aws4.resourceIcon;resIcon=mxgraph.aws4.sqs;labelBackgroundColor=none;strokeWidth=2;" vertex="1" parent="1">
            <mxGeometry x="-640" y="587.5" width="78" height="78" as="geometry" />
          </mxCell>
        </UserObject>
        <mxCell id="en84tyfOizJZ0K7rBSEd-20" value="AWS&amp;nbsp;&lt;div style=&quot;font-size: 18px;&quot;&gt;DynamoDb&lt;/div&gt;" style="shape=image;html=1;verticalAlign=top;verticalLabelPosition=bottom;imageAspect=0;aspect=fixed;image=https://cdn2.iconfinder.com/data/icons/amazon-aws-stencils/100/Database_copy_DynamoDB-128.png;fontSize=18;labelBackgroundColor=none;strokeWidth=2;" vertex="1" parent="1">
          <mxGeometry x="-220" y="169" width="68" height="68" as="geometry" />
        </mxCell>
        <mxCell id="en84tyfOizJZ0K7rBSEd-24" value="Get&amp;nbsp;&lt;div&gt;&lt;span style=&quot;background-color: initial;&quot;&gt;Item&amp;nbsp;&lt;/span&gt;&lt;/div&gt;&lt;div&gt;&lt;span style=&quot;background-color: initial;&quot;&gt;status&lt;/span&gt;&lt;/div&gt;" style="edgeStyle=orthogonalEdgeStyle;rounded=0;orthogonalLoop=1;jettySize=auto;html=1;fontSize=18;labelBackgroundColor=none;strokeWidth=2;align=right;startArrow=none;startFill=0;entryX=0.25;entryY=0;entryDx=0;entryDy=0;entryPerimeter=0;exitX=0.25;exitY=1;exitDx=0;exitDy=0;" edge="1" parent="1" source="en84tyfOizJZ0K7rBSEd-23" target="en84tyfOizJZ0K7rBSEd-11">
          <mxGeometry x="-0.3537" y="-8" relative="1" as="geometry">
            <mxPoint as="offset" />
          </mxGeometry>
        </mxCell>
        <mxCell id="5vuYcq1ne47_bo_od98X-4" style="edgeStyle=orthogonalEdgeStyle;rounded=0;orthogonalLoop=1;jettySize=auto;html=1;fontSize=18;labelBackgroundColor=none;strokeWidth=2;exitX=1;exitY=0.5;exitDx=0;exitDy=0;" edge="1" parent="1" source="en84tyfOizJZ0K7rBSEd-23" target="5vuYcq1ne47_bo_od98X-3">
          <mxGeometry relative="1" as="geometry">
            <mxPoint x="-171.99999999999977" y="625.9999999999998" as="sourcePoint" />
            <mxPoint x="-70" y="640" as="targetPoint" />
          </mxGeometry>
        </mxCell>
        <UserObject label="Listed Items&lt;div style=&quot;font-size: 18px;&quot;&gt;table&lt;/div&gt;" link="https://us-east-1.console.aws.amazon.com/dynamodbv2/home?region=us-east-1#table?name=ListedItems&amp;tab=overview" id="en84tyfOizJZ0K7rBSEd-23">
          <mxCell style="shape=image;html=1;verticalAlign=bottom;verticalLabelPosition=top;imageAspect=0;aspect=fixed;image=https://cdn2.iconfinder.com/data/icons/amazon-aws-stencils/100/Database_copy_DynamoDB-128.png;fontSize=18;labelBackgroundColor=none;strokeWidth=2;labelPosition=center;align=center;" vertex="1" parent="1">
            <mxGeometry x="-465.94" y="361" width="88" height="88" as="geometry" />
          </mxCell>
        </UserObject>
        <UserObject label="Reporting" link="https://judewoodprofessional.atlassian.net/wiki/spaces/SD1/pages/2588673/Reporting" id="B2KNwrcKhyxJ70hqTyCT-1">
          <mxCell style="rounded=1;whiteSpace=wrap;html=1;fillColor=#e1d5e7;strokeColor=#9673a6;fontSize=18;strokeWidth=2;labelBackgroundColor=none;opacity=50;" vertex="1" parent="1">
            <mxGeometry x="-150" y="370" width="120" height="70" as="geometry" />
          </mxCell>
        </UserObject>
        <mxCell id="B2KNwrcKhyxJ70hqTyCT-2" value="AWS&amp;nbsp;&lt;div style=&quot;font-size: 18px;&quot;&gt;Lambda&lt;/div&gt;" style="sketch=0;points=[[0,0,0],[0.25,0,0],[0.5,0,0],[0.75,0,0],[1,0,0],[0,1,0],[0.25,1,0],[0.5,1,0],[0.75,1,0],[1,1,0],[0,0.25,0],[0,0.5,0],[0,0.75,0],[1,0.25,0],[1,0.5,0],[1,0.75,0]];outlineConnect=0;fontColor=#232F3E;gradientColor=#F78E04;gradientDirection=north;fillColor=#D05C17;strokeColor=#ffffff;dashed=0;verticalLabelPosition=bottom;verticalAlign=top;align=center;html=1;fontSize=18;fontStyle=0;aspect=fixed;shape=mxgraph.aws4.resourceIcon;resIcon=mxgraph.aws4.lambda;labelBackgroundColor=none;strokeWidth=2;" vertex="1" parent="1">
          <mxGeometry x="-300" y="169" width="60" height="60" as="geometry" />
        </mxCell>
        <mxCell id="B2KNwrcKhyxJ70hqTyCT-3" value="AWS SQS" style="sketch=0;points=[[0,0,0],[0.25,0,0],[0.5,0,0],[0.75,0,0],[1,0,0],[0,1,0],[0.25,1,0],[0.5,1,0],[0.75,1,0],[1,1,0],[0,0.25,0],[0,0.5,0],[0,0.75,0],[1,0.25,0],[1,0.5,0],[1,0.75,0]];outlineConnect=0;fontColor=#232F3E;fillColor=#E7157B;strokeColor=#ffffff;dashed=0;verticalLabelPosition=bottom;verticalAlign=top;align=center;html=1;fontSize=18;fontStyle=0;aspect=fixed;shape=mxgraph.aws4.resourceIcon;resIcon=mxgraph.aws4.sqs;labelBackgroundColor=none;strokeWidth=2;" vertex="1" parent="1">
          <mxGeometry x="-380" y="170" width="59" height="59" as="geometry" />
        </mxCell>
        <mxCell id="B2KNwrcKhyxJ70hqTyCT-9" value="connecting module" style="rounded=1;whiteSpace=wrap;html=1;fillColor=#e1d5e7;strokeColor=#9673a6;fontSize=18;strokeWidth=2;labelBackgroundColor=none;fillStyle=auto;opacity=50;" vertex="1" parent="1">
          <mxGeometry x="-657" y="170" width="120" height="60" as="geometry" />
        </mxCell>
        <mxCell id="2Tsnn7EuF_mORqW4Cwoy-2" value="&lt;b&gt;Description&lt;/b&gt;&lt;div&gt;&lt;br&gt;&lt;div&gt;When item is moved to checkout,&amp;nbsp; checks that the item to be purchased is still available and, if so, update to set the Item status to reserved.&lt;/div&gt;&lt;/div&gt;" style="rounded=1;whiteSpace=wrap;html=1;labelPosition=center;verticalLabelPosition=middle;align=left;verticalAlign=top;fontSize=18;labelBackgroundColor=none;strokeWidth=2;" vertex="1" parent="1">
          <mxGeometry x="-820" y="10" width="790" height="100" as="geometry" />
        </mxCell>
        <UserObject label="Table stream" link="https://us-east-1.console.aws.amazon.com/dynamodbv2/home?region=us-east-1#table?name=ListedItems&amp;tab=streams" id="5vuYcq1ne47_bo_od98X-3">
          <mxCell style="sketch=0;outlineConnect=0;fontColor=#232F3E;gradientColor=none;fillColor=#C925D1;strokeColor=none;dashed=0;verticalLabelPosition=bottom;verticalAlign=top;align=center;html=1;fontSize=18;fontStyle=0;aspect=fixed;pointerEvents=1;shape=mxgraph.aws4.dynamodb_stream;labelBackgroundColor=none;strokeWidth=2;" vertex="1" parent="1">
            <mxGeometry x="-310" y="373" width="64" height="64" as="geometry" />
          </mxCell>
        </UserObject>
        <mxCell id="5vuYcq1ne47_bo_od98X-5" value="&lt;font style=&quot;font-size: 18px;&quot;&gt;DynamoDB&lt;/font&gt;&lt;div style=&quot;font-size: 18px;&quot;&gt;&lt;font style=&quot;font-size: 18px;&quot;&gt;Stream&lt;/font&gt;&lt;/div&gt;" style="sketch=0;outlineConnect=0;fontColor=#232F3E;gradientColor=none;fillColor=#C925D1;strokeColor=none;dashed=0;verticalLabelPosition=bottom;verticalAlign=top;align=center;html=1;fontSize=18;fontStyle=0;aspect=fixed;pointerEvents=1;shape=mxgraph.aws4.dynamodb_stream;labelBackgroundColor=none;" vertex="1" parent="1">
          <mxGeometry x="-130" y="174.25" width="57.5" height="57.5" as="geometry" />
        </mxCell>
      </root>
    </mxGraphModel>
  </diagram>
</mxfile>
